<?xml version="1.0" encoding="UTF-8"?>
<svg width="512px" height="512px" viewBox="0 0 512 512" version="1.1" xmlns="http://www.w3.org/2000/svg">
    <g id="Icon" stroke="none" fill="none" fill-rule="evenodd">
        <g transform="translate(143, 106)" fill="#000000" fill-rule="nonzero">
            <path d="M98.1027545,154.368782 C101.103204,146.159573 99.4423731,138.866316 94.2755529,132.390128 C83.4362714,118.803982 72.4328706,105.348733 61.4982323,91.8386411 C42.9145022,68.8778271 24.3474847,45.9034714 5.73300365,22.9676136 C2.7072631,19.2394295 1.32907277,15.1239799 2.31961533,10.408771 C3.58971238,4.36285713 8.80109362,0.0724132495 15.1861588,0.0605870166 C46.7138229,0 78.242279,-0.0638286712 109.76897,0.12439441 C117.37718,0.169819013 123.515108,3.91011795 128.30385,9.83573187 C146.586511,32.458878 164.888806,55.0660746 183.18493,77.6783177 C194.512628,91.6782684 205.81614,105.697913 217.178186,119.670005 C229.898328,135.312128 230.005069,157.457703 217.06511,174.422044 C206.800429,187.879042 196.242287,201.112807 185.772044,214.412318 C167.337504,237.828304 148.870595,261.218856 130.417709,284.620393 C130.306217,284.761813 130.191887,284.902442 130.095276,285.053892 C123.02981,296.128807 113.032427,300.268998 99.8741197,299.986552 C71.7822149,299.383494 43.6684668,299.787336 15.5636768,299.80835 C12.0449669,299.810989 8.75781977,299.108932 5.85719867,297.069566 C-0.804336353,292.38596 -1.97562815,283.78546 3.33414534,276.559021 C7.81068297,270.466519 12.6154268,264.614469 17.2931381,258.670348 C42.9083983,226.120113 68.5295975,193.574529 94.1473818,161.026273 C95.7132345,159.036785 97.0869373,156.930353 98.1027545,154.368782 Z"></path>
        </g>
    </g>
</svg>
